<?xml version="1.0" standalone="no"?>
<!DOCTYPE svg PUBLIC "-//W3C//DTD SVG 1.1//EN" "http://www.w3.org/Graphics/SVG/1.1/DTD/svg11.dtd" >
<svg xmlns="http://www.w3.org/2000/svg">
<metadata>Generated by IcoMoon</metadata>
<defs>
<font id="icomoon" horiz-adv-x="1024">
<font-face units-per-em="1024" ascent="960" descent="-64" />
<missing-glyph horiz-adv-x="1024" />
<glyph unicode="&#x20;" horiz-adv-x="512" d="" />
<glyph unicode="&#xe900;" glyph-name="menu" d="M128 618.667h768c35.328 0 64 28.672 64 64s-28.672 64-64 64h-768c-35.328 0-64-28.672-64-64s28.672-64 64-64zM896 490.667h-768c-35.328 0-64-28.672-64-64s28.672-64 64-64h768c35.328 0 64 28.672 64 64s-28.672 64-64 64zM896 234.667h-768c-35.328 0-64-28.672-64-64s28.672-64 64-64h768c35.328 0 64 28.672 64 64s-28.672 64-64 64z" />
<glyph unicode="&#xe901;" glyph-name="mail" d="M853.333 810.667h-682.667c-70.688 0-128-57.312-128-128v-512c0-70.688 57.312-128 128-128h682.667c70.688 0 128 57.312 128 128v512c0 70.688-57.312 128-128 128zM853.333 725.334c4.896 0 9.525-0.992 13.899-2.507l-355.232-284.181-355.232 284.181c4.384 1.515 9.003 2.507 13.899 2.507h682.667zM853.333 128h-682.667c-23.573 0-42.667 19.093-42.667 42.667v465.888l357.344-285.867c7.787-6.24 17.227-9.355 26.656-9.355s18.869 3.115 26.656 9.355l357.344 285.867v-465.888c0-23.573-19.093-42.667-42.667-42.667z" />
<glyph unicode="&#xe902;" glyph-name="mappin" d="M905.846 538.9c0 217.508-176.325 393.846-393.846 393.846-217.508 0-393.846-176.338-393.846-393.846 0-93.026 32.348-178.491 86.279-245.878 0.013-0.013 0.026-0.039 0.013-0.053s-0.026-0.026-0.053-0.026c101.691-127.002 245.406-306.504 292.221-364.964 3.742-4.661 9.4-7.378 15.373-7.391 5.986 0 11.658 2.704 15.386 7.378 46.789 58.447 190.464 237.87 292.155 364.885 0.013 0.013 0.026 0.039 0.013 0.053s-0.026 0.026-0.053 0.026c53.983 67.413 86.357 152.878 86.357 245.97zM755.751 339.233l-243.751-304.456-243.856 304.548c-0.722 0.985-1.457 1.956-2.219 2.914-45.148 56.412-69.002 124.416-69.002 196.661 0 173.739 141.351 315.077 315.077 315.077s315.077-141.338 315.077-315.077c0-72.284-23.88-140.314-69.081-196.739-0.761-0.958-1.51-1.93-2.245-2.928zM649.846 538.9c0-76.13-61.716-137.846-137.846-137.846s-137.846 61.716-137.846 137.846c0 76.13 61.716 137.846 137.846 137.846s137.846-61.716 137.846-137.846z" />
<glyph unicode="&#xe903;" glyph-name="car" d="M725.333 725.334c35.413 0 64 28.587 64 64 0 42.667-64 115.2-64 115.2s-64-72.533-64-115.2c0-35.413 28.587-64 64-64zM512 725.334c35.413 0 64 28.587 64 64 0 42.667-64 115.2-64 115.2s-64-72.533-64-115.2c0-35.413 28.587-64 64-64zM298.667 725.334c35.413 0 64 28.587 64 64 0 42.667-64 115.2-64 115.2s-64-72.533-64-115.2c0-35.413 28.587-64 64-64zM807.253 596.907c-8.747 25.173-32.64 43.093-60.587 43.093h-469.333c-27.947 0-51.84-17.92-60.587-43.093l-88.747-255.573v-341.333c0-23.467 19.2-42.667 42.667-42.667h42.667c23.68 0 42.667 19.2 42.667 42.667v42.667h512v-42.667c0-23.467 19.2-42.667 42.667-42.667h42.667c23.68 0 42.667 19.2 42.667 42.667v341.333l-88.747 255.573zM277.333 170.667c-35.413 0-64 28.587-64 64s28.587 64 64 64 64-28.587 64-64-28.587-64-64-64zM746.667 170.667c-35.413 0-64 28.587-64 64s28.587 64 64 64 64-28.587 64-64-28.587-64-64-64zM213.333 384l64 192h469.333l64-192h-597.333z" />
<glyph unicode="&#xe904;" glyph-name="close" d="M128 10.667c-0.055 0-0.12-0.001-0.185-0.001-8.791 0-16.753 3.545-22.537 9.283l0.002-0.002c-5.846 5.8-9.466 13.837-9.466 22.72s3.619 16.92 9.463 22.718l768.002 768.002c5.815 5.815 13.847 9.411 22.72 9.411 17.745 0 32.131-14.386 32.131-32.131 0-8.873-3.596-16.905-9.411-22.72l-768-768c-5.782-5.736-13.744-9.281-22.535-9.281-0.065 0-0.13 0-0.195 0.001h0.010zM896 10.667c-0.055 0-0.12-0.001-0.185-0.001-8.791 0-16.753 3.545-22.537 9.283l-767.998 767.998c-5.815 5.815-9.411 13.847-9.411 22.72 0 17.745 14.386 32.131 32.131 32.131 8.873 0 16.905-3.596 22.72-9.411v0l768-768c5.846-5.8 9.466-13.837 9.466-22.72s-3.619-16.92-9.463-22.718l-0.002-0.002c-5.782-5.736-13.744-9.281-22.535-9.281-0.065 0-0.13 0-0.195 0.001h0.010z" />
<glyph unicode="&#xe905;" glyph-name="arrow-up" d="M243.499 396.502l225.835 225.835v-494.336c0-23.552 19.115-42.667 42.667-42.667s42.667 19.115 42.667 42.667v494.336l225.835-225.835c16.683-16.683 43.691-16.683 60.331 0s16.683 43.691 0 60.331l-298.667 298.667c-3.925 3.925-8.619 7.083-13.824 9.259s-10.795 3.243-16.341 3.243c-10.923 0-21.845-4.181-30.165-12.501l-298.667-298.667c-16.683-16.683-16.683-43.691 0-60.331s43.691-16.683 60.331 0z" />
<glyph unicode="&#xe906;" glyph-name="facebook_social_icon" d="M576 554.667v76.2c0 34.4 7.6 51.8 61 51.8h67v128h-111.8c-137 0-182.2-62.8-182.2-170.6v-85.4h-90v-128h90v-384h166v384h112.8l15.2 128h-128zM660.4 458.667h-116.4v-384h-102v384h-90v64h90v117.4c0 49 10.8 82.4 31 103.6 22.4 24 62.2 35 119.2 35h79.8v-64h-35c-24 0-55-2.2-74.2-23.4-16.2-18-18.8-40.2-18.8-60.2v-108.4h124l-7.6-64z" />
<glyph unicode="&#xe907;" glyph-name="gps_location_map_marker_icon" d="M512 74.667c-7.36 0-14.752 2.528-20.736 7.616-7.744 6.592-190.144 163.2-266.24 334.016-7.2 16.128 0.064 35.072 16.224 42.24 16.096 7.168 35.040-0.064 42.24-16.224 55.648-124.96 178.464-246.368 227.968-292.16 87.36 84.8 256.544 274.304 256.544 397.152 0 145.216-114.848 263.36-256 263.36s-256-118.144-256-263.36c0-17.664-14.336-32-32-32s-32 14.336-32 32c0 180.512 143.552 327.36 320 327.36s320-146.848 320-327.36c0-189.184-286.208-453.088-298.4-464.256-6.112-5.568-13.856-8.384-21.6-8.384zM512 426.667c-70.592 0-128 57.408-128 128s57.408 128 128 128c70.592 0 128-57.408 128-128s-57.408-128-128-128zM512 618.667c-35.296 0-64-28.704-64-64s28.704-64 64-64c35.296 0 64 28.704 64 64s-28.704 64-64 64zM928-21.333h-832c-11.392 0-21.952 6.048-27.68 15.936s-5.76 22.016-0.096 31.936l128 224c8.768 15.328 28.32 20.704 43.648 11.904 15.328-8.768 20.672-28.32 11.904-43.648l-100.64-176.128h721.696l-100.64 176.128c-8.768 15.328-3.424 34.88 11.904 43.648 15.328 8.832 34.88 3.424 43.648-11.904l128-224c5.664-9.92 5.632-22.048-0.096-31.936-5.696-9.888-16.256-15.936-27.648-15.936z" />
<glyph unicode="&#xe908;" glyph-name="contact_email_envelope_inbox_mail_icon" d="M896 98.667h-768c-44.112 0-80 35.888-80 80v520c0 44.112 35.888 80 80 80h768c44.112 0 80-35.888 80-80v-520c0-44.112-35.888-80-80-80zM128 746.667c-26.472 0-48-21.528-48-48v-520c0-26.472 21.528-48 48-48h768c26.472 0 48 21.528 48 48v520c0 26.472-21.528 48-48 48h-768zM512 418.347c-9.656 0-19.32 2.936-27.648 8.808l-420.328 241.64c-7.656 4.408-10.296 14.184-5.896 21.848 4.416 7.656 14.192 10.272 21.848 5.896l422.528-243.032c5.688-4.168 13.296-4.168 18.984 0l1.504 0.984 421.032 242.048c7.68 4.384 17.448 1.76 21.848-5.896 4.4-7.664 1.76-17.448-5.896-21.848l-420.328-241.64c-8.328-5.872-17.992-8.808-27.648-8.808z" />
<glyph unicode="&#xe90b;" glyph-name="profile_about_mobile-ui_user_icon" d="M512 426.667c123.712 0 224 100.288 224 224s-100.288 224-224 224c-123.712 0-224-100.288-224-224v0c0-123.712 100.288-224 224-224v0zM512 810.667c88.366 0 160-71.634 160-160s-71.634-160-160-160c-88.366 0-160 71.634-160 160v0c0 88.366 71.634 160 160 160v0zM544 362.667h-64c-194.404 0-352-157.596-352-352v0c0-17.673 14.327-32 32-32v0h704c17.673 0 32 14.327 32 32v0c0 194.404-157.596 352-352 352v0zM193.92 42.667c16.642 144.643 138.354 255.928 286.073 256h64.007c147.726-0.072 269.438-111.357 285.955-254.666l0.125-1.334z" />
<glyph unicode="&#xe90c;" d="M511.999 863.574c-118.657 0-133.536-0.503-180.136-2.629-46.503-2.123-78.264-9.507-106.056-20.309-28.73-11.165-53.096-26.105-77.384-50.393s-39.228-48.654-50.393-77.384c-10.801-27.79-18.186-59.551-20.309-106.054-2.126-46.601-2.627-61.479-2.627-180.136 0-118.655 0.501-133.534 2.627-180.135 2.123-46.503 9.507-78.264 20.309-106.054 11.165-28.73 26.105-53.096 50.393-77.386s48.654-39.228 77.384-50.393c27.792-10.799 59.552-18.186 106.056-20.307 46.601-2.126 61.479-2.629 180.136-2.629 118.655 0 133.534 0.503 180.135 2.629 46.503 2.121 78.264 9.507 106.054 20.307 28.73 11.165 53.096 26.105 77.386 50.393 24.289 24.291 39.228 48.656 50.393 77.386 10.799 27.79 18.186 59.551 20.307 106.054 2.126 46.601 2.629 61.479 2.629 180.135 0 118.657-0.503 133.536-2.629 180.136-2.121 46.503-9.507 78.264-20.307 106.054-11.165 28.73-26.105 53.096-50.393 77.384-24.291 24.289-48.656 39.228-77.386 50.393-27.79 10.801-59.551 18.186-106.054 20.309-46.601 2.126-61.479 2.629-180.135 2.629zM511.999 784.85c116.658 0 130.476-0.444 176.546-2.546 42.598-1.944 65.732-9.062 81.127-15.043 20.394-7.926 34.948-17.395 50.236-32.683 15.29-15.288 24.757-29.844 32.683-50.236 5.983-15.395 13.101-38.529 15.043-81.127 2.102-46.070 2.548-59.889 2.548-176.548s-0.446-130.476-2.548-176.546c-1.942-42.598-9.060-65.732-15.043-81.127-7.926-20.394-17.393-34.948-32.683-50.236-15.288-15.29-29.842-24.757-50.236-32.683-15.395-5.983-38.529-13.101-81.127-15.043-46.063-2.102-59.88-2.548-176.546-2.548-116.668 0-130.483 0.446-176.548 2.548-42.598 1.942-65.732 9.060-81.127 15.043-20.394 7.926-34.948 17.393-50.237 32.683-15.288 15.288-24.757 29.842-32.681 50.236-5.983 15.395-13.101 38.529-15.045 81.127-2.102 46.070-2.546 59.889-2.546 176.546 0 116.659 0.444 130.478 2.546 176.548 1.944 42.598 9.062 65.732 15.045 81.127 7.924 20.392 17.393 34.948 32.681 50.236 15.29 15.288 29.844 24.757 50.237 32.683 15.395 5.982 38.529 13.099 81.127 15.043 46.070 2.102 59.889 2.546 176.548 2.546z" />
<glyph unicode="&#xe90d;" d="M511.999 281.034c-80.433 0-145.636 65.203-145.636 145.634 0 80.433 65.203 145.636 145.636 145.636s145.634-65.203 145.634-145.636c0-80.432-65.203-145.634-145.634-145.634zM511.999 651.025c-123.91 0-224.357-100.447-224.357-224.357 0-123.909 100.447-224.356 224.357-224.356s224.356 100.447 224.356 224.356c0 123.91-100.447 224.357-224.356 224.357z" />
<glyph unicode="&#xe90e;" d="M797.649 659.889c0-28.956-23.474-52.428-52.43-52.428-28.954 0-52.428 23.472-52.428 52.428s23.474 52.428 52.428 52.428c28.956 0 52.43-23.472 52.43-52.428z" />
<glyph unicode="&#xe90f;" glyph-name="call_cellular_contact_phone_icon" d="M875.52 741.867l-72.64 72.64c-17.368 17.344-41.349 28.070-67.835 28.070-31.68 0-59.776-15.345-77.26-39.008l-0.185-0.262-70.72-96c-11.515-15.643-18.428-35.292-18.428-56.556 0-10.197 1.59-20.023 4.535-29.244l-0.188 0.68 4.16-12.16c8.64-28.48 19.84-64 26.88-87.68 0.832-2.714 1.311-5.834 1.311-9.065 0-4.836-1.073-9.422-2.993-13.531l0.082 0.197c-18.384-36.761-40.588-68.368-66.754-96.208l0.194 0.208c-5.846-5.8-9.466-13.837-9.466-22.72s3.619-16.92 9.463-22.718l0.002-0.002c5.784-5.751 13.757-9.305 22.56-9.305s16.776 3.555 22.562 9.307l-0.002-0.002c30.889 32.235 57.162 69.238 77.535 109.721l1.185 2.599c6.128 12.098 9.718 26.376 9.718 41.492 0 9.979-1.564 19.593-4.461 28.61l0.184-0.662c-6.72 23.040-18.24 59.52-27.2 88l-3.84 12.48c-0.614 2.343-0.967 5.034-0.967 7.807 0 7.611 2.657 14.601 7.094 20.094l-0.047-0.061 70.72 96c5.89 7.975 15.255 13.091 25.815 13.091 8.776 0 16.726-3.533 22.507-9.253l21.437-21.437-64-99.2c-3.177-4.885-5.067-10.862-5.067-17.28 0-17.654 14.297-31.97 31.944-32h0.003c0.046 0 0.1 0 0.154 0 11.121 0 20.917 5.673 26.652 14.283l0.073 0.117 56.64 87.68 5.12-4.8c13.551-14.707 21.86-34.427 21.86-56.086 0-1.433-0.036-2.857-0.108-4.272l0.008 0.199c0-56.32-38.080-160-215.36-334.080-185.92-182.4-333.44-256-394.56-194.24l-74.56 73.6c-5.787 5.79-9.366 13.787-9.366 22.62 0 0.823 0.031 1.639 0.092 2.447l-0.007-0.108c0.793 9.632 5.742 17.968 13.030 23.297l0.090 0.063 96 70.72c5.222 3.856 11.786 6.172 18.892 6.172 3.306 0 6.495-0.501 9.495-1.432l-0.227 0.061 60.48-18.88-68.16-48.32c-8.29-5.863-13.636-15.41-13.636-26.206 0-6.976 2.232-13.43 6.021-18.688l-0.065 0.095c5.873-8.177 15.356-13.44 26.068-13.44 0.060 0 0.121 0 0.181 0.001h-0.009c6.83 0.017 13.153 2.17 18.341 5.828l-0.101-0.068 121.6 85.44c8.413 5.849 13.851 15.467 13.851 26.355 0 6.912-2.191 13.312-5.917 18.543l0.066-0.098c-4.189 5.493-10.010 9.551-16.734 11.465l-0.226 0.055-121.6 39.040c-8.541 2.758-18.367 4.348-28.564 4.348-21.264 0-40.913-6.913-56.822-18.615l0.266 0.187-96-70.72c-23.925-17.669-39.27-45.765-39.27-77.445 0-26.486 10.726-50.467 28.071-67.836l-0.001 0.001 72.64-72.96c24.953-24.926 59.411-40.34 97.469-40.34 0.834 0 1.666 0.007 2.496 0.022l-0.125-0.002c80.64 0 202.24 56 384 234.24 154.88 152 233.92 279.68 234.56 379.52 0.074 1.712 0.115 3.721 0.115 5.739 0 38.888-15.553 74.143-40.779 99.885l0.023-0.024z" />
<glyph unicode="&#xe910;" glyph-name="auto_car_repair_service_icon" d="M298.667-42.666c-70.692 0-128 57.308-128 128s57.308 128 128 128c70.692 0 128-57.308 128-128v0c0-70.692-57.308-128-128-128v0zM298.667 128c-23.564 0-42.667-19.103-42.667-42.667s19.103-42.667 42.667-42.667c23.564 0 42.667 19.103 42.667 42.667v0c0 23.564-19.103 42.667-42.667 42.667v0zM768-42.666c-70.692 0-128 57.308-128 128s57.308 128 128 128c70.692 0 128-57.308 128-128v0c0-70.692-57.308-128-128-128v0zM768 128c-23.564 0-42.667-19.103-42.667-42.667s19.103-42.667 42.667-42.667c23.564 0 42.667 19.103 42.667 42.667v0c0 23.564-19.103 42.667-42.667 42.667v0zM213.333 42.667h-85.333c-47.128 0-85.333 38.205-85.333 85.333v0 128c0 70.692 57.308 128 128 128v0h16.213l49.92 99.84c21.471 42.326 64.668 70.827 114.522 70.827 0.088 0 0.177 0 0.265 0h167.666c35.333-0.032 67.31-14.375 90.452-37.545l133.121-133.121h88.32c82.848-0.242 149.945-67.338 150.187-150.163v-20.503c0-23.564-19.103-42.667-42.667-42.667s-42.667 19.103-42.667 42.667v0 20.48c0 35.818-29.036 64.853-64.853 64.853v0h-105.813c-0.073 0-0.16-0.001-0.247-0.001-11.721 0-22.338 4.726-30.049 12.377l0.003-0.003-145.493 145.92c-7.709 7.648-18.326 12.374-30.047 12.374-0.087 0-0.173 0-0.26-0.001h-167.667c-0.088 0.001-0.193 0.001-0.297 0.001-16.562 0-30.921-9.437-37.991-23.227l-0.112-0.24-61.867-123.733c-7.163-13.992-21.462-23.415-37.966-23.467h-42.674c-23.564 0-42.667-19.103-42.667-42.667v0-128h85.333c23.564 0 42.667-19.103 42.667-42.667s-19.103-42.667-42.667-42.667v0zM725.333 341.334h-170.667c-47.128 0-85.333 38.205-85.333 85.333v0 85.333h85.333zM682.667 42.667h-298.667c-23.564 0-42.667 19.103-42.667 42.667s19.103 42.667 42.667 42.667v0h298.667c23.564 0 42.667-19.103 42.667-42.667s-19.103-42.667-42.667-42.667v0zM554.667 341.334h-128c-23.564 0-42.667 19.103-42.667 42.667s19.103 42.667 42.667 42.667v0h128c23.564 0 42.667-19.103 42.667-42.667s-19.103-42.667-42.667-42.667v0zM609.28 682.667h-225.28c-35.346 0-64 28.654-64 64s28.654 64 64 64v0h225.28c35.346 0 64-28.654 64-64s-28.654-64-64-64v0zM746.667 597.334c-82.475 0-149.333 66.859-149.333 149.333v0c-0.017 0.841-0.027 1.833-0.027 2.827 0 40.494 16.304 77.18 42.706 103.852l-0.012-0.012c27.502 26.85 65.15 43.413 106.667 43.413s79.165-16.564 106.697-43.443l-0.030 0.030c7.662-7.715 12.397-18.344 12.397-30.080 0-23.577-19.113-42.691-42.691-42.691-11.842 0-22.557 4.821-30.291 12.608l-0.002 0.002c-11.713 11.266-27.66 18.205-45.227 18.205s-33.514-6.939-45.248-18.226l0.021 0.020c-11.565-11.579-18.717-27.568-18.717-45.227s7.152-33.648 18.718-45.227l-0.001 0.001c11.713-11.266 27.66-18.205 45.227-18.205s33.514 6.939 45.248 18.226l-0.021-0.020c7.833 7.574 18.518 12.242 30.293 12.242 24.081 0 43.602-19.521 43.602-43.602 0-12.306-5.098-23.421-13.296-31.348l-0.012-0.012c-26.659-26.39-63.346-42.694-103.84-42.694-0.994 0-1.986 0.010-2.975 0.029l0.148-0.002zM246.187 597.334c-0.488-0.006-1.064-0.009-1.642-0.009-40.596 0-77.386 16.292-104.19 42.694l0.019-0.018c-7.668 7.712-12.407 18.343-12.407 30.080s4.74 22.368 12.409 30.082l-0.002-0.002c7.733 7.795 18.45 12.621 30.293 12.621s22.56-4.826 30.291-12.618l0.003-0.003c11.531-11.669 27.535-18.895 45.227-18.895s33.696 7.227 45.221 18.889l0.006 0.006c11.463 11.625 18.543 27.599 18.543 45.227s-7.079 33.602-18.55 45.234l0.007-0.007c-11.531 11.669-27.535 18.895-45.227 18.895s-33.696-7.227-45.221-18.889l-0.006-0.006c-7.733-7.795-18.45-12.621-30.293-12.621s-22.56 4.826-30.291 12.618l-0.003 0.003c-8.458 7.82-13.736 18.974-13.736 31.36s5.278 23.54 13.707 31.334l0.028 0.026c27.108 26.845 64.417 43.43 105.6 43.43 82.896 0 150.097-67.201 150.097-150.097 0-41.713-17.016-79.452-44.485-106.655l-0.012-0.012c-26.657-26.378-63.336-42.675-103.821-42.675-0.551 0-1.1 0.003-1.649 0.009l0.084-0.001z" />
<glyph unicode="&#xe942;" glyph-name="phone" d="M704 298.667c-64-64-64-128-128-128s-128 64-192 128-128 128-128 192 64 64 128 128-128 256-192 256-192-192-192-192c0-128 131.5-387.5 256-512s384-256 512-256c0 0 192 128 192 192s-192 256-256 192z" />
<glyph unicode="&#xe947;" glyph-name="location" d="M512 938.667c-176.732 0-320-143.268-320-320 0-320 320-704 320-704s320 384 320 704c0 176.732-143.27 320-320 320zM512 426.667c-106.040 0-192 85.96-192 192s85.96 192 192 192 192-85.96 192-192-85.96-192-192-192z" />
<glyph unicode="&#xea90;" glyph-name="facebook" d="M608 746.667h160v192h-160c-123.514 0-224-100.486-224-224v-96h-128v-192h128v-512h192v512h160l32 192h-192v96c0 17.346 14.654 32 32 32z" />
<glyph unicode="&#xea92;" glyph-name="instagram" d="M512 846.467c136.8 0 153-0.6 206.8-3 50-2.2 77-10.6 95-17.6 23.8-9.2 41-20.4 58.8-38.2 18-18 29-35 38.4-58.8 7-18 15.4-45.2 17.6-95 2.4-54 3-70.2 3-206.8s-0.6-153-3-206.8c-2.2-50-10.6-77-17.6-95-9.2-23.8-20.4-41-38.2-58.8-18-18-35-29-58.8-38.4-18-7-45.2-15.4-95-17.6-54-2.4-70.2-3-206.8-3s-153 0.6-206.8 3c-50 2.2-77 10.6-95 17.6-23.8 9.2-41 20.4-58.8 38.2-18 18-29 35-38.4 58.8-7 18-15.4 45.2-17.6 95-2.4 54-3 70.2-3 206.8s0.6 153 3 206.8c2.2 50 10.6 77 17.6 95 9.2 23.8 20.4 41 38.2 58.8 18 18 35 29 58.8 38.4 18 7 45.2 15.4 95 17.6 53.8 2.4 70 3 206.8 3zM512 938.667c-139 0-156.4-0.6-211-3-54.4-2.4-91.8-11.2-124.2-23.8-33.8-13.2-62.4-30.6-90.8-59.2-28.6-28.4-46-57-59.2-90.6-12.6-32.6-21.4-69.8-23.8-124.2-2.4-54.8-3-72.2-3-211.2s0.6-156.4 3-211c2.4-54.4 11.2-91.8 23.8-124.2 13.2-33.8 30.6-62.4 59.2-90.8 28.4-28.4 57-46 90.6-59 32.6-12.6 69.8-21.4 124.2-23.8 54.6-2.4 72-3 211-3s156.4 0.6 211 3c54.4 2.4 91.8 11.2 124.2 23.8 33.6 13 62.2 30.6 90.6 59s46 57 59 90.6c12.6 32.6 21.4 69.8 23.8 124.2 2.4 54.6 3 72 3 211s-0.6 156.4-3 211c-2.4 54.4-11.2 91.8-23.8 124.2-12.6 34-30 62.6-58.6 91-28.4 28.4-57 46-90.6 59-32.6 12.6-69.8 21.4-124.2 23.8-54.8 2.6-72.2 3.2-211.2 3.2v0zM512 689.667c-145.2 0-263-117.8-263-263s117.8-263 263-263 263 117.8 263 263c0 145.2-117.8 263-263 263zM512 256.067c-94.2 0-170.6 76.4-170.6 170.6s76.4 170.6 170.6 170.6c94.2 0 170.6-76.4 170.6-170.6s-76.4-170.6-170.6-170.6zM846.8 700.067c0-33.91-27.49-61.4-61.4-61.4s-61.4 27.49-61.4 61.4c0 33.91 27.49 61.4 61.4 61.4s61.4-27.49 61.4-61.4z" />
<glyph unicode="&#xea93;" glyph-name="whatsapp" d="M873 789.867c-95.8 96-223.2 148.8-359 148.8-279.6 0-507.2-227.6-507.2-507.4 0-89.4 23.4-176.8 67.8-253.6l-72-263 269 70.6c74.2-40.4 157.6-61.8 242.4-61.8h0.2c0 0 0 0 0 0 279.6 0 507.4 227.6 507.4 507.4 0 135.6-52.8 263-148.6 359zM514.2 9.067v0c-75.8 0-150 20.4-214.8 58.8l-15.4 9.2-159.6-41.8 42.6 155.6-10 16c-42.4 67-64.6 144.6-64.6 224.4 0 232.6 189.2 421.8 422 421.8 112.6 0 218.6-44 298.2-123.6 79.6-79.8 123.4-185.6 123.4-298.4-0.2-232.8-189.4-422-421.8-422zM745.4 325.067c-12.6 6.4-75 37-86.6 41.2s-20 6.4-28.6-6.4c-8.4-12.6-32.8-41.2-40.2-49.8-7.4-8.4-14.8-9.6-27.4-3.2s-53.6 19.8-102 63c-37.6 33.6-63.2 75.2-70.6 87.8s-0.8 19.6 5.6 25.8c5.8 5.6 12.6 14.8 19 22.2s8.4 12.6 12.6 21.2c4.2 8.4 2.2 15.8-1 22.2s-28.6 68.8-39 94.2c-10.2 24.8-20.8 21.4-28.6 21.8-7.4 0.4-15.8 0.4-24.2 0.4s-22.2-3.2-33.8-15.8c-11.6-12.6-44.4-43.4-44.4-105.8s45.4-122.6 51.8-131.2c6.4-8.4 89.4-136.6 216.6-191.4 30.2-13 53.8-20.8 72.2-26.8 30.4-9.6 58-8.2 79.8-5 24.4 3.6 75 30.6 85.6 60.2s10.6 55 7.4 60.2c-3 5.6-11.4 8.8-24.2 15.2z" />
</font>
</defs>
</svg>
